<svg id="Capa_1" enable-background="new 0 0 512 512" height="512" viewBox="0 0 512 512" width="512" xmlns="http://www.w3.org/2000/svg"><g><path d="m401 200.5c0-110.556-89.943-200.499-200.499-200.5-112.351-.085-199.69 90.842-200.49 198.396-.422 41.057 11.481 80.643 34.424 114.48 22.375 33 53.654 58.368 90.457 73.362 12.524 5.103 20.335 17.535 19.435 30.936l-6.368 94.826h125.082l-6.367-94.825c-.901-13.43 6.761-25.802 19.066-30.787 36.574-14.816 67.752-39.9 90.163-72.542 22.961-33.441 35.097-72.635 35.097-113.346zm-370.991-1.795c.905-95.89 79.391-168.992 170.492-168.705 94.014.001 170.499 76.486 170.499 170.5 0 32.763-9.242 64.36-26.771 91.744h-287.457c-17.862-27.905-27.106-60.143-26.763-93.539zm106.202 159.75c-20.689-8.429-39.31-20.738-55.069-36.211h69.558l-2.853 42.487c-3.59-2.463-7.476-4.581-11.636-6.276zm33.83 123.545 10.727-159.756h39.465l10.726 159.756zm94.436-123.418c-4.044 1.638-7.828 3.684-11.33 6.066l-2.847-42.403h69.56c-15.845 15.556-34.581 27.91-55.383 36.337z"/><path d="m432 352c-44.112 0-80 35.888-80 80s35.888 80 80 80 80-35.888 80-80-35.888-80-80-80zm0 130c-27.57 0-50-22.43-50-50s22.43-50 50-50 50 22.43 50 50-22.43 50-50 50z"/></g></svg>